# xmcd CD database file
#
# Track frame offsets:
#	150
#	17196
#	33123
#	52303
#	67403
#	88255
#	103716
#	126995
#	144424
#	162749
#
# Disc length: 2419 seconds
#
# Revision: 0
# Processed by: cddbd v1.5.1PL0 Copyright (c) Steve Scherf et al.
# Submitted via: CDex 1.51
#
DISCID=9a09710a
DTITLE=Scott Rotge - The Scott Rotge Band
DYEAR=2003
DGENRE=Country
TTITLE0=Deadbolt
TTITLE1=Roadtrip
TTITLE2=What if I'm Right
TTITLE3=Bartime
TTITLE4=Cargo Cowby
TTITLE5=Good ol' Boys
TTITLE6=Loving Strong
TTITLE7=I Don't Smoke
TTITLE8=Hey, You
TTITLE9=Say Hello
EXTD=YEAR: 2003
EXTT0=
EXTT1=
EXTT2=
EXTT3=
EXTT4=
EXTT5=
EXTT6=
EXTT7=
EXTT8=
EXTT9=
PLAYORDER=
